HIERARCHY
ROOT hip
{
	OFFSET 0.000000 0.000000 0.000000 
	CHANNELS 6 Xposition Yposition Zposition Xrotation Zrotation Yrotation
	JOINT abdomen
	{
		OFFSET 0.000000 3.402643 0.000000 
		CHANNELS 3 Xrotation Zrotation Yrotation
		JOINT chest
		{
			OFFSET 0.000000 8.438565 -0.680529 
			CHANNELS 3 Xrotation Zrotation Yrotation
			JOINT neck
			{
				OFFSET 0.000000 10.207942 -0.272212 
				CHANNELS 3 Xrotation Zrotation Yrotation
				JOINT head
				{
					OFFSET 0.000000 3.130431 0.000000 
					CHANNELS 3 Xrotation Zrotation Yrotation
					End Site
					{
						OFFSET 0.000000 3.130435 0.000000 
					}
				}
			}
			JOINT lCollar
			{
				OFFSET 3.470700 6.669187 -0.816635 
				CHANNELS 3 Yrotation Zrotation Xrotation
				JOINT lShldr
				{
					OFFSET 3.198488 0.000000 0.000000 
					CHANNELS 3 Zrotation Yrotation Xrotation
					JOINT lForeArm
					{
						OFFSET 10.139888 0.000000 0.000000 
						CHANNELS 3 Yrotation Zrotation Xrotation
						JOINT lHand
						{
							OFFSET 8.370511 0.000000 0.000000 
							CHANNELS 3 Zrotation Yrotation Xrotation
							End Site
							{
								OFFSET 4.083176 0.000000 0.000000 
							}
						}
					}
				}
			}
			JOINT rCollar
			{
				OFFSET -3.470700 6.669187 -0.816635 
				CHANNELS 3 Yrotation Zrotation Xrotation
				JOINT rShldr
				{
					OFFSET -3.198488 0.000000 0.000000 
					CHANNELS 3 Zrotation Yrotation Xrotation
					JOINT rForeArm
					{
						OFFSET -10.139888 0.000000 0.000000 
						CHANNELS 3 Yrotation Zrotation Xrotation
						JOINT rHand
						{
							OFFSET -8.370511 0.000000 0.000000 
							CHANNELS 3 Zrotation Yrotation Xrotation
							End Site
							{
								OFFSET -4.083176 0.000000 0.000000 
							}
						}
					}
				}
			}
		}
	}
	JOINT lThigh
	{
		OFFSET 5.308129 -1.633274 1.361059 
		CHANNELS 3 Xrotation Zrotation Yrotation
		JOINT lShin
		{
			OFFSET -2.041588 -20.007561 0.000000 
			CHANNELS 3 Xrotation Zrotation Yrotation
			JOINT lFoot
			{
				OFFSET 0.000000 -19.190928 -1.224953 
				CHANNELS 3 Xrotation Yrotation Zrotation
				End Site
				{
					OFFSET 0.000000 -2.449906 4.627600 
				}
			}
		}
	}
	JOINT rThigh
	{
		OFFSET -5.308129 -1.633274 1.361059 
		CHANNELS 3 Xrotation Zrotation Yrotation
		JOINT rShin
		{
			OFFSET 2.041588 -20.007561 0.000000 
			CHANNELS 3 Xrotation Zrotation Yrotation
			JOINT rFoot
			{
				OFFSET 0.000000 -19.190928 -1.224953 
				CHANNELS 3 Xrotation Yrotation Zrotation
				End Site
				{
					OFFSET 0.000000 -2.449906 4.627600 
				}
			}
		}
	}
}
MOTION
Frames: 18
Frame Time: 0.033333
-7.534788 50.403130 24.278511 -7.960600 -1.150914 -3.364491 0.000000 0.000000 0.000000 3.613309 -0.224163 -0.277865 14.127371 -1.745906 7.390134 18.355726 -4.860720 10.561820 -6.040955 -14.375907 0.947452 -30.160732 26.114283 25.249434 -153.509293 8.028397 3.922920 -5.907699 -0.503154 34.338017 -1.681839 14.954301 1.394621 46.654793 39.936348 60.318493 134.973557 -17.069916 3.220622 8.398141 -5.714762 26.385254 9.006771 7.681621 3.463998 4.879027 -3.522189 25.225433 -3.528529 0.174344 -5.549329 3.073997 -6.081017 -6.527775 13.293421 3.922905 6.793951 -17.155569 -0.440188 3.042664 
-7.434492 50.396717 24.302040 -7.853026 -1.102843 -3.207303 0.000000 0.000000 0.000000 3.701226 -0.311848 -0.235070 13.987705 -2.045665 6.599948 17.299135 -4.218702 9.638183 -5.805840 -14.502119 1.100540 -30.088512 26.427538 23.754120 -153.076675 7.817973 3.930101 -5.916819 -0.885026 32.923664 -1.617632 14.347873 1.557459 47.361591 40.415649 59.736500 135.468048 -16.727757 3.244209 8.328552 -6.060498 26.914362 8.748039 7.557339 3.327469 5.182094 -3.511593 25.165310 -3.724208 0.184994 -5.516508 3.053096 -6.283180 -6.675382 13.305059 4.040382 7.020186 -17.215504 -0.424020 2.985730 
-7.363012 50.376335 24.300909 -7.589160 -1.045451 -2.946677 0.000000 0.000000 0.000000 3.623183 -0.497051 -0.090151 13.763980 -1.809407 5.896100 16.630856 -3.984142 8.794066 -5.432038 -13.570659 1.128107 -31.187737 26.257399 22.818607 -152.159149 7.759498 3.927905 -5.407204 -0.916638 30.956299 -1.415680 14.403785 1.532726 47.537624 40.452541 59.116276 135.888031 -16.518385 3.265123 7.784974 -5.472016 27.721083 7.997042 7.509789 3.254575 6.100212 -3.570168 25.224594 -4.290183 0.238135 -5.620155 2.722211 -6.362693 -6.647412 13.495673 3.992670 6.873343 -17.418732 -0.400755 2.700839 
-7.271271 50.441017 24.314499 -7.656989 -0.793642 -2.823004 0.000000 0.000000 0.000000 3.818749 -0.818491 -0.074296 13.694075 -1.962714 5.346241 15.876006 -3.865233 8.169039 -5.437973 -14.933927 1.324088 -29.534889 26.392384 19.856899 -150.863434 7.283412 3.951338 -6.551059 -2.023295 25.868885 -1.273012 14.219227 1.796425 48.071609 40.980869 58.319828 135.933746 -16.241049 3.282452 6.845714 -5.305302 27.638479 9.435428 7.173370 3.446525 3.337839 -3.720297 25.935934 -3.026815 0.140624 -4.890114 3.160520 -6.546142 -6.679166 12.864098 4.108496 7.111301 -17.109049 -0.438086 2.966025 
-7.204450 50.447807 24.323311 -7.500427 -0.609971 -2.488057 0.000000 0.000000 0.000000 3.770145 -1.032917 -0.029164 13.553889 -1.822542 4.721403 15.373533 -3.432984 7.580557 -5.409670 -14.556303 1.284046 -30.081892 26.091238 18.444918 -148.796616 6.982688 3.952657 -8.635000 -2.989500 19.420660 -1.241493 14.679808 1.717302 48.152706 40.781948 56.540627 136.412979 -15.712000 3.311065 7.652586 -4.217355 27.605167 9.528905 6.971555 3.325780 2.713762 -3.762951 25.765812 -2.758814 0.112686 -4.633945 3.082073 -6.721399 -6.706419 12.826522 4.011065 6.924229 -17.246962 -0.447879 2.939225 
-7.143415 50.397972 24.342941 -7.422759 -0.881226 -2.072711 0.000000 0.000000 0.000000 3.769784 -0.662626 -0.063301 13.584620 -1.713808 4.557025 15.360667 -2.967561 7.343832 -5.479715 -14.890739 1.259460 -30.250866 25.482704 18.058842 -146.908234 7.110624 3.928938 -10.335712 -2.837205 17.674055 -0.986634 15.547681 1.681771 46.418968 40.443951 52.732700 136.984573 -14.854024 3.375704 7.100467 -2.554020 28.183706 7.767204 7.182549 2.964962 5.982717 -3.492583 24.836126 -4.534960 0.209694 -5.350111 2.946895 -6.675627 -6.940004 13.081408 4.050340 6.206341 -17.469671 -0.463269 3.020708 
-7.091568 50.446926 24.344072 -7.295239 -0.532762 -1.494301 0.000000 0.000000 0.000000 3.819017 -1.062090 -0.149188 13.367968 -1.049172 3.498513 14.341331 -4.158820 6.818508 -5.498811 -14.557329 1.352260 -31.282700 24.431540 17.641737 -145.155121 7.363588 3.909883 -11.679564 -2.127473 19.370115 -1.242560 15.088989 1.783037 47.197723 38.910519 49.916721 137.425232 -14.077879 3.430417 3.578161 -1.677045 27.603745 8.753557 6.919962 3.177484 3.553033 -3.758832 24.923973 -3.294022 0.130202 -4.613382 3.122670 -6.802756 -6.881299 12.623211 4.011470 5.838216 -17.261646 -0.455109 3.101473 
-7.037709 50.441769 24.364964 -7.314706 -0.474622 -0.974235 0.000000 0.000000 0.000000 3.877572 -1.023044 -0.206220 13.086403 -1.350203 3.230948 14.511456 -3.244431 6.334357 -5.551119 -14.796930 1.467721 -31.875341 23.300097 18.141438 -143.711075 7.660104 3.873324 -11.278653 -0.232016 18.702538 -1.391856 15.208666 1.909722 46.710579 36.913155 45.058552 137.768250 -12.958844 3.506071 2.195461 -0.326972 26.789379 8.167264 6.821621 3.110332 4.547801 -3.832495 25.200378 -4.016475 0.168651 -4.597014 3.309500 -6.874403 -6.975294 12.625495 3.924085 5.937471 -17.546780 -0.470282 3.061607 
-6.997311 50.434338 24.410267 -7.119304 -0.387613 -0.430105 0.000000 0.000000 0.000000 3.750657 -1.071919 -0.265748 12.814679 -1.191420 2.895451 14.734944 -2.990637 5.967874 -5.517935 -15.315815 1.374202 -32.334309 22.508572 19.913626 -142.699966 8.236838 3.831233 -8.528256 0.369530 20.206480 -1.318541 15.846981 1.824693 44.705360 32.967827 38.392078 138.815369 -11.455606 3.597757 1.508708 0.748683 24.318340 8.270227 6.805774 2.967882 4.187162 -3.697636 24.030216 -3.753244 0.148540 -4.633457 3.268244 -6.927538 -7.079607 12.664937 3.894585 5.587004 -17.702276 -0.482261 3.100193 
-6.979065 50.458008 24.476585 -6.923995 -0.397471 0.302173 0.000000 0.000000 0.000000 3.682263 -1.052511 -0.312040 12.536747 -0.743934 2.374997 14.705882 -3.039353 5.554062 -5.529674 -15.523878 1.199835 -33.563137 21.184231 22.096964 -142.037781 8.904715 3.784466 -5.786335 1.439582 22.613447 -1.292939 16.045439 1.664452 42.012524 28.374191 32.345924 139.365936 -10.166268 3.684749 -0.682856 1.930351 21.091097 8.083267 6.794994 2.830058 3.962770 -3.669151 23.451839 -3.781661 0.150947 -4.463655 3.491322 -6.877392 -7.171921 12.152046 3.854386 4.680159 -17.612074 -0.547545 3.517464 
-6.950122 50.445415 24.589090 -6.972825 -0.397429 1.279074 0.000000 0.000000 0.000000 3.672530 -1.081759 -0.421164 12.350997 -0.310078 1.778432 15.086414 -2.891579 4.905865 -5.332317 -14.646113 1.321561 -36.981903 19.325821 25.330227 -140.734955 9.717288 3.729011 -3.261260 0.540592 22.422895 -1.279258 16.445377 1.715307 40.051655 22.526602 29.594479 140.033493 -9.568960 3.729577 -4.420434 1.913830 18.549162 7.907825 6.903012 2.836635 4.517654 -3.587256 22.467348 -4.048914 0.168010 -4.587160 3.963353 -6.717450 -7.220714 12.017733 3.786691 4.041191 -17.708712 -0.534953 3.536442 
-6.915640 50.447678 24.681458 -7.041203 -0.416755 2.072958 0.000000 0.000000 0.000000 3.760123 -0.789313 -0.491455 12.199377 -0.811682 1.546991 14.905940 -1.931623 4.200561 -5.317090 -15.779581 1.283297 -38.342037 16.840958 28.248262 -139.361862 10.392832 3.670992 0.399436 0.674537 20.016201 -0.878428 16.801090 1.709457 37.699463 17.074051 28.353014 139.262192 -9.349092 3.731204 -7.919365 2.408640 13.340645 7.619679 6.938185 2.696357 5.104936 -3.513530 21.403320 -4.540940 0.196820 -4.592402 4.373077 -6.686932 -7.411273 11.713601 3.766630 3.131482 -17.870678 -0.563208 3.677116 
-6.862408 50.452461 24.767031 -7.148497 -0.232553 2.704947 0.000000 0.000000 0.000000 3.838331 -0.867191 -0.575899 12.100368 -0.532336 1.132282 14.974636 -2.009010 3.750131 -5.147312 -15.220429 1.348780 -41.865150 13.429132 32.370365 -137.330338 11.478110 3.580513 4.612888 2.394431 20.318649 -0.985975 16.123663 1.779055 38.783810 12.854699 31.727703 136.879471 -10.166076 3.662446 -11.284391 1.081033 8.687257 7.965782 6.717006 2.533881 4.547237 -3.413588 21.201580 -4.164010 0.168764 -4.440203 4.715560 -6.835085 -7.651357 11.544942 3.843713 2.482982 -17.574966 -0.570029 3.748467 
-6.818993 50.453224 24.794842 -7.216797 -0.019377 2.795422 0.000000 0.000000 0.000000 3.877340 -0.808692 -0.445565 12.151458 -0.766811 1.292570 15.140190 -1.862820 3.341072 -4.764909 -16.046698 1.321761 -43.369896 9.241152 34.872597 -134.670395 12.436973 3.498315 6.801460 5.816365 22.807375 -0.532342 16.062641 1.806854 39.472458 10.871695 34.884125 133.348343 -11.100603 3.568866 -14.061053 -1.927269 4.806464 7.809690 6.463545 2.531489 4.859544 -3.686733 22.000576 -4.684984 0.177859 -4.231206 4.760090 -7.043588 -7.743463 11.646530 3.747174 2.511240 -17.485508 -0.566551 3.783009 
-6.821384 50.450821 24.859274 -7.314457 -0.058117 2.712538 0.000000 0.000000 0.000000 3.906586 -0.750206 -0.549399 11.972234 -0.924082 1.469831 15.461002 -1.386498 3.260823 -4.618411 -16.030376 1.316995 -46.230083 5.062344 39.875603 -131.042969 13.819862 3.369289 13.070602 4.685278 23.356693 -0.203114 16.767794 1.741399 39.745449 10.735352 38.135078 129.154755 -12.025782 3.459484 -17.687855 -6.269888 2.966467 8.279814 6.542409 2.466295 4.428509 -3.497845 21.060946 -4.398818 0.165962 -4.370374 4.907169 -6.928222 -7.630967 11.541869 3.572429 1.992388 -17.486565 -0.577340 3.765846 
-6.810058 50.445545 24.899040 -7.431648 0.077469 2.353176 0.000000 0.000000 0.000000 4.043353 -0.789047 -0.514887 11.650455 -1.045682 1.699440 15.919802 -1.278571 3.165757 -4.208105 -15.965039 1.434218 -48.101711 0.421239 42.243835 -126.937347 14.486715 3.285493 14.975992 4.882721 23.016035 0.031256 16.211210 1.849668 42.169228 11.641174 42.032700 124.164986 -12.832082 3.350945 -21.701948 -8.381067 -1.691745 8.590831 6.405005 2.531992 4.165369 -3.633617 21.544497 -4.304097 0.145665 -4.271770 4.888493 -7.065161 -7.606665 11.739686 3.550807 2.404225 -17.465639 -0.535508 3.501028 
-6.800115 50.434090 24.940821 -7.626955 0.038717 2.026066 0.000000 0.000000 0.000000 4.219067 -0.701220 -0.344812 11.368018 -0.919799 1.741931 16.624149 -1.576234 2.687897 -3.642761 -16.213396 1.651615 -49.291233 -5.112344 45.168037 -122.538773 15.060478 3.186151 18.153927 8.058348 20.210962 0.573138 17.096390 2.037696 42.150223 12.356488 44.022873 120.047600 -13.125813 3.274896 -23.509613 -11.648848 -9.746143 8.774469 6.442282 2.653579 4.411130 -3.628844 22.015163 -4.411224 0.167835 -4.433324 5.054233 -7.093996 -7.559586 11.829421 3.773871 3.627493 -16.998657 -0.515194 3.420290 
-6.821007 50.447430 24.989145 -7.490235 0.019365 1.852923 0.000000 0.000000 0.000000 4.199492 -0.652540 -0.292161 10.652255 -1.177637 1.748528 17.032530 -0.994996 2.225464 -3.265473 -15.974028 1.540138 -50.817612 -9.065535 48.522118 -117.902313 15.386343 3.101544 25.208900 7.924226 16.407644 0.587814 15.356479 1.991371 45.427063 13.846779 46.714737 115.818642 -13.222695 3.212298 -25.106571 -14.961058 -12.388968 8.911403 6.423483 2.648897 3.873014 -3.721377 22.090473 -4.186934 0.161865 -4.263412 4.959578 -7.127928 -7.543811 11.697435 3.738064 3.273891 -17.122517 -0.530149 3.523584 
